<svg width="8" height="8" viewBox="0 0 8 8" fill="whte" xmlns="http://www.w3.org/2000/svg">
<path d="M0.21967 0.21967C0.512563 -0.0732233 0.987437 -0.0732233 1.28033 0.21967L3.99978 2.93912L6.7195 0.219838C7.0124 -0.0730556 7.48744 -0.0732233 7.78033 0.21967C8.07322 0.512563 8.07318 0.987479 7.78029 1.28037L5.06066 4L7.78018 6.71952C8.07307 7.01241 8.07322 7.48744 7.78033 7.78033C7.48744 8.07322 7.01252 8.07318 6.71963 7.78029L4 5.06066L1.28033 7.78033C0.987437 8.07322 0.512563 8.07322 0.21967 7.78033C-0.0732233 7.48744 -0.0732233 7.01256 0.21967 6.71967L2.93934 4L0.21967 1.28033C-0.0732233 0.987437 -0.0732233 0.512563 0.21967 0.21967Z" fill="white"/>
</svg>
